# Blender 5.0.1
# www.blender.org
mtllib chloe1.mtl
o c
v -1.250000 0.000000 0.750000
v -0.250000 0.000000 0.750000
v -0.250000 0.000000 -0.750000
v -1.250000 0.000000 -0.750000
v -1.250000 0.500000 0.750000
v -0.250000 0.500000 0.750000
v -0.250000 0.500000 -0.750000
v -1.250000 0.500000 -0.750000
vn -0.0000 -1.0000 -0.0000
vn -0.0000 1.0000 -0.0000
vn -0.0000 -0.0000 1.0000
vn 1.0000 -0.0000 -0.0000
vn -0.0000 -0.0000 -1.0000
vn -1.0000 -0.0000 -0.0000
s 0
usemtl sandal
f 4//1 3//1 2//1 1//1
f 5//2 6//2 7//2 8//2
f 1//3 2//3 6//3 5//3
f 2//4 3//4 7//4 6//4
f 3//5 4//5 8//5 7//5
f 4//6 1//6 5//6 8//6
o c.001
v 0.250000 0.000000 0.750000
v 1.250000 0.000000 0.750000
v 1.250000 0.000000 -0.750000
v 0.250000 0.000000 -0.750000
v 0.250000 0.500000 0.750000
v 1.250000 0.500000 0.750000
v 1.250000 0.500000 -0.750000
v 0.250000 0.500000 -0.750000
vn -0.0000 -1.0000 -0.0000
vn -0.0000 1.0000 -0.0000
vn -0.0000 -0.0000 1.0000
vn 1.0000 -0.0000 -0.0000
vn -0.0000 -0.0000 -1.0000
vn -1.0000 -0.0000 -0.0000
s 0
usemtl sandal
f 12//7 11//7 10//7 9//7
f 13//8 14//8 15//8 16//8
f 9//9 10//9 14//9 13//9
f 10//10 11//10 15//10 14//10
f 11//11 12//11 16//11 15//11
f 12//12 9//12 13//12 16//12
o c.002
v -1.500000 0.500000 0.750000
v 0.000000 0.500000 0.750000
v 0.000000 0.500000 -0.750000
v -1.500000 0.500000 -0.750000
v -1.500000 3.000000 0.750000
v 0.000000 3.000000 0.750000
v 0.000000 3.000000 -0.750000
v -1.500000 3.000000 -0.750000
vn -0.0000 -1.0000 -0.0000
vn -0.0000 1.0000 -0.0000
vn -0.0000 -0.0000 1.0000
vn 1.0000 -0.0000 -0.0000
vn -0.0000 -0.0000 -1.0000
vn -1.0000 -0.0000 -0.0000
s 0
usemtl pant
f 20//13 19//13 18//13 17//13
f 21//14 22//14 23//14 24//14
f 17//15 18//15 22//15 21//15
f 18//16 19//16 23//16 22//16
f 19//17 20//17 24//17 23//17
f 20//18 17//18 21//18 24//18
o c.003
v -0.825000 0.500000 0.675000
v -0.675000 0.500000 0.675000
v -0.675000 0.500000 0.525000
v -0.825000 0.500000 0.525000
v -0.825000 3.000000 0.675000
v -0.675000 3.000000 0.675000
v -0.675000 3.000000 0.525000
v -0.825000 3.000000 0.525000
vn -0.0000 -1.0000 -0.0000
vn -0.0000 1.0000 -0.0000
vn -0.0000 -0.0000 1.0000
vn 1.0000 -0.0000 -0.0000
vn -0.0000 -0.0000 -1.0000
vn -1.0000 -0.0000 -0.0000
s 0
usemtl pant_dk
f 28//19 27//19 26//19 25//19
f 29//20 30//20 31//20 32//20
f 25//21 26//21 30//21 29//21
f 26//22 27//22 31//22 30//22
f 27//23 28//23 32//23 31//23
f 28//24 25//24 29//24 32//24
o c.004
v 0.000000 0.500000 0.750000
v 1.500000 0.500000 0.750000
v 1.500000 0.500000 -0.750000
v 0.000000 0.500000 -0.750000
v 0.000000 3.000000 0.750000
v 1.500000 3.000000 0.750000
v 1.500000 3.000000 -0.750000
v 0.000000 3.000000 -0.750000
vn -0.0000 -1.0000 -0.0000
vn -0.0000 1.0000 -0.0000
vn -0.0000 -0.0000 1.0000
vn 1.0000 -0.0000 -0.0000
vn -0.0000 -0.0000 -1.0000
vn -1.0000 -0.0000 -0.0000
s 0
usemtl pant
f 36//25 35//25 34//25 33//25
f 37//26 38//26 39//26 40//26
f 33//27 34//27 38//27 37//27
f 34//28 35//28 39//28 38//28
f 35//29 36//29 40//29 39//29
f 36//30 33//30 37//30 40//30
o c.005
v 0.675000 0.500000 0.675000
v 0.825000 0.500000 0.675000
v 0.825000 0.500000 0.525000
v 0.675000 0.500000 0.525000
v 0.675000 3.000000 0.675000
v 0.825000 3.000000 0.675000
v 0.825000 3.000000 0.525000
v 0.675000 3.000000 0.525000
vn -0.0000 -1.0000 -0.0000
vn -0.0000 1.0000 -0.0000
vn -0.0000 -0.0000 1.0000
vn 1.0000 -0.0000 -0.0000
vn -0.0000 -0.0000 -1.0000
vn -1.0000 -0.0000 -0.0000
s 0
usemtl pant_dk
f 44//31 43//31 42//31 41//31
f 45//32 46//32 47//32 48//32
f 41//33 42//33 46//33 45//33
f 42//34 43//34 47//34 46//34
f 43//35 44//35 48//35 47//35
f 44//36 41//36 45//36 48//36
o c.006
v -1.500000 3.000000 0.750000
v 1.500000 3.000000 0.750000
v 1.500000 3.000000 -0.750000
v -1.500000 3.000000 -0.750000
v -1.500000 3.500000 0.750000
v 1.500000 3.500000 0.750000
v 1.500000 3.500000 -0.750000
v -1.500000 3.500000 -0.750000
vn -0.0000 -1.0000 -0.0000
vn -0.0000 1.0000 -0.0000
vn -0.0000 -0.0000 1.0000
vn 1.0000 -0.0000 -0.0000
vn -0.0000 -0.0000 -1.0000
vn -1.0000 -0.0000 -0.0000
s 0
usemtl waist
f 52//37 51//37 50//37 49//37
f 53//38 54//38 55//38 56//38
f 49//39 50//39 54//39 53//39
f 50//40 51//40 55//40 54//40
f 51//41 52//41 56//41 55//41
f 52//42 49//42 53//42 56//42
o c.007
v -1.250000 3.500000 0.750000
v 1.250000 3.500000 0.750000
v 1.250000 3.500000 -0.750000
v -1.250000 3.500000 -0.750000
v -1.250000 4.000000 0.750000
v 1.250000 4.000000 0.750000
v 1.250000 4.000000 -0.750000
v -1.250000 4.000000 -0.750000
vn -0.0000 -1.0000 -0.0000
vn -0.0000 1.0000 -0.0000
vn -0.0000 -0.0000 1.0000
vn 1.0000 -0.0000 -0.0000
vn -0.0000 -0.0000 -1.0000
vn -1.0000 -0.0000 -0.0000
s 0
usemtl skin
f 60//43 59//43 58//43 57//43
f 61//44 62//44 63//44 64//44
f 57//45 58//45 62//45 61//45
f 58//46 59//46 63//46 62//46
f 59//47 60//47 64//47 63//47
f 60//48 57//48 61//48 64//48
o c.008
v -1.250000 4.000000 0.750000
v 1.250000 4.000000 0.750000
v 1.250000 4.000000 -0.750000
v -1.250000 4.000000 -0.750000
v -1.250000 5.500000 0.750000
v 1.250000 5.500000 0.750000
v 1.250000 5.500000 -0.750000
v -1.250000 5.500000 -0.750000
vn -0.0000 -1.0000 -0.0000
vn -0.0000 1.0000 -0.0000
vn -0.0000 -0.0000 1.0000
vn 1.0000 -0.0000 -0.0000
vn -0.0000 -0.0000 -1.0000
vn -1.0000 -0.0000 -0.0000
s 0
usemtl top
f 68//49 67//49 66//49 65//49
f 69//50 70//50 71//50 72//50
f 65//51 66//51 70//51 69//51
f 66//52 67//52 71//52 70//52
f 67//53 68//53 72//53 71//53
f 68//54 65//54 69//54 72//54
o c.009
v -1.250000 5.500000 0.500000
v -0.250000 5.500000 0.500000
v -0.250000 5.500000 -0.500000
v -1.250000 5.500000 -0.500000
v -1.250000 6.000000 0.500000
v -0.250000 6.000000 0.500000
v -0.250000 6.000000 -0.500000
v -1.250000 6.000000 -0.500000
vn -0.0000 -1.0000 -0.0000
vn -0.0000 1.0000 -0.0000
vn -0.0000 -0.0000 1.0000
vn 1.0000 -0.0000 -0.0000
vn -0.0000 -0.0000 -1.0000
vn -1.0000 -0.0000 -0.0000
s 0
usemtl top
f 76//55 75//55 74//55 73//55
f 77//56 78//56 79//56 80//56
f 73//57 74//57 78//57 77//57
f 74//58 75//58 79//58 78//58
f 75//59 76//59 80//59 79//59
f 76//60 73//60 77//60 80//60
o c.010
v 0.250000 5.500000 0.500000
v 1.250000 5.500000 0.500000
v 1.250000 5.500000 -0.500000
v 0.250000 5.500000 -0.500000
v 0.250000 6.000000 0.500000
v 1.250000 6.000000 0.500000
v 1.250000 6.000000 -0.500000
v 0.250000 6.000000 -0.500000
vn -0.0000 -1.0000 -0.0000
vn -0.0000 1.0000 -0.0000
vn -0.0000 -0.0000 1.0000
vn 1.0000 -0.0000 -0.0000
vn -0.0000 -0.0000 -1.0000
vn -1.0000 -0.0000 -0.0000
s 0
usemtl skin
f 84//61 83//61 82//61 81//61
f 85//62 86//62 87//62 88//62
f 81//63 82//63 86//63 85//63
f 82//64 83//64 87//64 86//64
f 83//65 84//65 88//65 87//65
f 84//66 81//66 85//66 88//66
o c.011
v -1.000000 4.250000 0.725000
v 1.000000 4.250000 0.725000
v 1.000000 4.250000 0.575000
v -1.000000 4.250000 0.575000
v -1.000000 4.500000 0.725000
v 1.000000 4.500000 0.725000
v 1.000000 4.500000 0.575000
v -1.000000 4.500000 0.575000
vn -0.0000 -1.0000 -0.0000
vn -0.0000 1.0000 -0.0000
vn -0.0000 -0.0000 1.0000
vn 1.0000 -0.0000 -0.0000
vn -0.0000 -0.0000 -1.0000
vn -1.0000 -0.0000 -0.0000
s 0
usemtl top_dk
f 92//67 91//67 90//67 89//67
f 93//68 94//68 95//68 96//68
f 89//69 90//69 94//69 93//69
f 90//70 91//70 95//70 94//70
f 91//71 92//71 96//71 95//71
f 92//72 89//72 93//72 96//72
o c.012
v -1.000000 4.750000 0.725000
v 1.000000 4.750000 0.725000
v 1.000000 4.750000 0.575000
v -1.000000 4.750000 0.575000
v -1.000000 5.000000 0.725000
v 1.000000 5.000000 0.725000
v 1.000000 5.000000 0.575000
v -1.000000 5.000000 0.575000
vn -0.0000 -1.0000 -0.0000
vn -0.0000 1.0000 -0.0000
vn -0.0000 -0.0000 1.0000
vn 1.0000 -0.0000 -0.0000
vn -0.0000 -0.0000 -1.0000
vn -1.0000 -0.0000 -0.0000
s 0
usemtl top_dk
f 100//73 99//73 98//73 97//73
f 101//74 102//74 103//74 104//74
f 97//75 98//75 102//75 101//75
f 98//76 99//76 103//76 102//76
f 99//77 100//77 104//77 103//77
f 100//78 97//78 101//78 104//78
o c.013
v -0.750000 5.250000 0.700000
v 0.750000 5.250000 0.700000
v 0.750000 5.250000 0.600000
v -0.750000 5.250000 0.600000
v -0.750000 5.400000 0.700000
v 0.750000 5.400000 0.700000
v 0.750000 5.400000 0.600000
v -0.750000 5.400000 0.600000
vn -0.0000 -1.0000 -0.0000
vn -0.0000 1.0000 -0.0000
vn -0.0000 -0.0000 1.0000
vn 1.0000 -0.0000 -0.0000
vn -0.0000 -0.0000 -1.0000
vn -1.0000 -0.0000 -0.0000
s 0
usemtl gold
f 108//79 107//79 106//79 105//79
f 109//80 110//80 111//80 112//80
f 105//81 106//81 110//81 109//81
f 106//82 107//82 111//82 110//82
f 107//83 108//83 112//83 111//83
f 108//84 105//84 109//84 112//84
o c.014
v -0.125000 5.100000 0.800000
v 0.125000 5.100000 0.800000
v 0.125000 5.100000 0.700000
v -0.125000 5.100000 0.700000
v -0.125000 5.250000 0.800000
v 0.125000 5.250000 0.800000
v 0.125000 5.250000 0.700000
v -0.125000 5.250000 0.700000
vn -0.0000 -1.0000 -0.0000
vn -0.0000 1.0000 -0.0000
vn -0.0000 -0.0000 1.0000
vn 1.0000 -0.0000 -0.0000
vn -0.0000 -0.0000 -1.0000
vn -1.0000 -0.0000 -0.0000
s 0
usemtl gold
f 116//85 115//85 114//85 113//85
f 117//86 118//86 119//86 120//86
f 113//87 114//87 118//87 117//87
f 114//88 115//88 119//88 118//88
f 115//89 116//89 120//89 119//89
f 116//90 113//90 117//90 120//90
o c.015
v -1.900000 2.500000 0.375000
v -1.300000 2.500000 0.375000
v -1.300000 2.500000 -0.375000
v -1.900000 2.500000 -0.375000
v -1.900000 4.500000 0.375000
v -1.300000 4.500000 0.375000
v -1.300000 4.500000 -0.375000
v -1.900000 4.500000 -0.375000
vn -0.0000 -1.0000 -0.0000
vn -0.0000 1.0000 -0.0000
vn -0.0000 -0.0000 1.0000
vn 1.0000 -0.0000 -0.0000
vn -0.0000 -0.0000 -1.0000
vn -1.0000 -0.0000 -0.0000
s 0
usemtl skin_dk
f 124//91 123//91 122//91 121//91
f 125//92 126//92 127//92 128//92
f 121//93 122//93 126//93 125//93
f 122//94 123//94 127//94 126//94
f 123//95 124//95 128//95 127//95
f 124//96 121//96 125//96 128//96
o c.016
v -1.900000 4.500000 0.375000
v -1.300000 4.500000 0.375000
v -1.300000 4.500000 -0.375000
v -1.900000 4.500000 -0.375000
v -1.900000 5.500000 0.375000
v -1.300000 5.500000 0.375000
v -1.300000 5.500000 -0.375000
v -1.900000 5.500000 -0.375000
vn -0.0000 -1.0000 -0.0000
vn -0.0000 1.0000 -0.0000
vn -0.0000 -0.0000 1.0000
vn 1.0000 -0.0000 -0.0000
vn -0.0000 -0.0000 -1.0000
vn -1.0000 -0.0000 -0.0000
s 0
usemtl top
f 132//97 131//97 130//97 129//97
f 133//98 134//98 135//98 136//98
f 129//99 130//99 134//99 133//99
f 130//100 131//100 135//100 134//100
f 131//101 132//101 136//101 135//101
f 132//102 129//102 133//102 136//102
o c.017
v -1.850000 2.000000 0.250000
v -1.350000 2.000000 0.250000
v -1.350000 2.000000 -0.250000
v -1.850000 2.000000 -0.250000
v -1.850000 2.500000 0.250000
v -1.350000 2.500000 0.250000
v -1.350000 2.500000 -0.250000
v -1.850000 2.500000 -0.250000
vn -0.0000 -1.0000 -0.0000
vn -0.0000 1.0000 -0.0000
vn -0.0000 -0.0000 1.0000
vn 1.0000 -0.0000 -0.0000
vn -0.0000 -0.0000 -1.0000
vn -1.0000 -0.0000 -0.0000
s 0
usemtl skin
f 140//103 139//103 138//103 137//103
f 141//104 142//104 143//104 144//104
f 137//105 138//105 142//105 141//105
f 138//106 139//106 143//106 142//106
f 139//107 140//107 144//107 143//107
f 140//108 137//108 141//108 144//108
o c.018
v 1.300000 2.500000 0.375000
v 1.900000 2.500000 0.375000
v 1.900000 2.500000 -0.375000
v 1.300000 2.500000 -0.375000
v 1.300000 4.500000 0.375000
v 1.900000 4.500000 0.375000
v 1.900000 4.500000 -0.375000
v 1.300000 4.500000 -0.375000
vn -0.0000 -1.0000 -0.0000
vn -0.0000 1.0000 -0.0000
vn -0.0000 -0.0000 1.0000
vn 1.0000 -0.0000 -0.0000
vn -0.0000 -0.0000 -1.0000
vn -1.0000 -0.0000 -0.0000
s 0
usemtl skin_dk
f 148//109 147//109 146//109 145//109
f 149//110 150//110 151//110 152//110
f 145//111 146//111 150//111 149//111
f 146//112 147//112 151//112 150//112
f 147//113 148//113 152//113 151//113
f 148//114 145//114 149//114 152//114
o c.019
v 1.300000 4.500000 0.375000
v 1.900000 4.500000 0.375000
v 1.900000 4.500000 -0.375000
v 1.300000 4.500000 -0.375000
v 1.300000 5.500000 0.375000
v 1.900000 5.500000 0.375000
v 1.900000 5.500000 -0.375000
v 1.300000 5.500000 -0.375000
vn -0.0000 -1.0000 -0.0000
vn -0.0000 1.0000 -0.0000
vn -0.0000 -0.0000 1.0000
vn 1.0000 -0.0000 -0.0000
vn -0.0000 -0.0000 -1.0000
vn -1.0000 -0.0000 -0.0000
s 0
usemtl skin
f 156//115 155//115 154//115 153//115
f 157//116 158//116 159//116 160//116
f 153//117 154//117 158//117 157//117
f 154//118 155//118 159//118 158//118
f 155//119 156//119 160//119 159//119
f 156//120 153//120 157//120 160//120
o c.020
v 1.350000 2.000000 0.250000
v 1.850000 2.000000 0.250000
v 1.850000 2.000000 -0.250000
v 1.350000 2.000000 -0.250000
v 1.350000 2.500000 0.250000
v 1.850000 2.500000 0.250000
v 1.850000 2.500000 -0.250000
v 1.350000 2.500000 -0.250000
vn -0.0000 -1.0000 -0.0000
vn -0.0000 1.0000 -0.0000
vn -0.0000 -0.0000 1.0000
vn 1.0000 -0.0000 -0.0000
vn -0.0000 -0.0000 -1.0000
vn -1.0000 -0.0000 -0.0000
s 0
usemtl skin
f 164//121 163//121 162//121 161//121
f 165//122 166//122 167//122 168//122
f 161//123 162//123 166//123 165//123
f 162//124 163//124 167//124 166//124
f 163//125 164//125 168//125 167//125
f 164//126 161//126 165//126 168//126
o c.021
v -0.500000 6.000000 0.500000
v 0.500000 6.000000 0.500000
v 0.500000 6.000000 -0.500000
v -0.500000 6.000000 -0.500000
v -0.500000 6.500000 0.500000
v 0.500000 6.500000 0.500000
v 0.500000 6.500000 -0.500000
v -0.500000 6.500000 -0.500000
vn -0.0000 -1.0000 -0.0000
vn -0.0000 1.0000 -0.0000
vn -0.0000 -0.0000 1.0000
vn 1.0000 -0.0000 -0.0000
vn -0.0000 -0.0000 -1.0000
vn -1.0000 -0.0000 -0.0000
s 0
usemtl skin
f 172//127 171//127 170//127 169//127
f 173//128 174//128 175//128 176//128
f 169//129 170//129 174//129 173//129
f 170//130 171//130 175//130 174//130
f 171//131 172//131 176//131 175//131
f 172//132 169//132 173//132 176//132
o c.022
v -1.500000 6.500000 1.500000
v 1.500000 6.500000 1.500000
v 1.500000 6.500000 -1.000000
v -1.500000 6.500000 -1.000000
v -1.500000 9.500000 1.500000
v 1.500000 9.500000 1.500000
v 1.500000 9.500000 -1.000000
v -1.500000 9.500000 -1.000000
vn -0.0000 -1.0000 -0.0000
vn -0.0000 1.0000 -0.0000
vn -0.0000 -0.0000 1.0000
vn 1.0000 -0.0000 -0.0000
vn -0.0000 -0.0000 -1.0000
vn -1.0000 -0.0000 -0.0000
s 0
usemtl skin
f 180//133 179//133 178//133 177//133
f 181//134 182//134 183//134 184//134
f 177//135 178//135 182//135 181//135
f 178//136 179//136 183//136 182//136
f 179//137 180//137 184//137 183//137
f 180//138 177//138 181//138 184//138
o c.023
v -1.150000 7.500000 1.725000
v -0.150000 7.500000 1.725000
v -0.150000 7.500000 1.475000
v -1.150000 7.500000 1.475000
v -1.150000 8.750000 1.725000
v -0.150000 8.750000 1.725000
v -0.150000 8.750000 1.475000
v -1.150000 8.750000 1.475000
vn -0.0000 -1.0000 -0.0000
vn -0.0000 1.0000 -0.0000
vn -0.0000 -0.0000 1.0000
vn 1.0000 -0.0000 -0.0000
vn -0.0000 -0.0000 -1.0000
vn -1.0000 -0.0000 -0.0000
s 0
usemtl eye
f 188//139 187//139 186//139 185//139
f 189//140 190//140 191//140 192//140
f 185//141 186//141 190//141 189//141
f 186//142 187//142 191//142 190//142
f 187//143 188//143 192//143 191//143
f 188//144 185//144 189//144 192//144
o c.024
v 0.150000 7.500000 1.725000
v 1.150000 7.500000 1.725000
v 1.150000 7.500000 1.475000
v 0.150000 7.500000 1.475000
v 0.150000 8.750000 1.725000
v 1.150000 8.750000 1.725000
v 1.150000 8.750000 1.475000
v 0.150000 8.750000 1.475000
vn -0.0000 -1.0000 -0.0000
vn -0.0000 1.0000 -0.0000
vn -0.0000 -0.0000 1.0000
vn 1.0000 -0.0000 -0.0000
vn -0.0000 -0.0000 -1.0000
vn -1.0000 -0.0000 -0.0000
s 0
usemtl eye
f 196//145 195//145 194//145 193//145
f 197//146 198//146 199//146 200//146
f 193//147 194//147 198//147 197//147
f 194//148 195//148 199//148 198//148
f 195//149 196//149 200//149 199//149
f 196//150 193//150 197//150 200//150
o c.025
v -0.475000 8.150000 1.825000
v -0.125000 8.150000 1.825000
v -0.125000 8.150000 1.675000
v -0.475000 8.150000 1.675000
v -0.475000 8.500000 1.825000
v -0.125000 8.500000 1.825000
v -0.125000 8.500000 1.675000
v -0.475000 8.500000 1.675000
vn -0.0000 -1.0000 -0.0000
vn -0.0000 1.0000 -0.0000
vn -0.0000 -0.0000 1.0000
vn 1.0000 -0.0000 -0.0000
vn -0.0000 -0.0000 -1.0000
vn -1.0000 -0.0000 -0.0000
s 0
usemtl eye_w
f 204//151 203//151 202//151 201//151
f 205//152 206//152 207//152 208//152
f 201//153 202//153 206//153 205//153
f 202//154 203//154 207//154 206//154
f 203//155 204//155 208//155 207//155
f 204//156 201//156 205//156 208//156
o c.026
v 0.825000 8.150000 1.825000
v 1.175000 8.150000 1.825000
v 1.175000 8.150000 1.675000
v 0.825000 8.150000 1.675000
v 0.825000 8.500000 1.825000
v 1.175000 8.500000 1.825000
v 1.175000 8.500000 1.675000
v 0.825000 8.500000 1.675000
vn -0.0000 -1.0000 -0.0000
vn -0.0000 1.0000 -0.0000
vn -0.0000 -0.0000 1.0000
vn 1.0000 -0.0000 -0.0000
vn -0.0000 -0.0000 -1.0000
vn -1.0000 -0.0000 -0.0000
s 0
usemtl eye_w
f 212//157 211//157 210//157 209//157
f 213//158 214//158 215//158 216//158
f 209//159 210//159 214//159 213//159
f 210//160 211//160 215//160 214//160
f 211//161 212//161 216//161 215//161
f 212//162 209//162 213//162 216//162
o c.031
v -0.250000 6.750000 1.675000
v 0.250000 6.750000 1.675000
v 0.250000 6.750000 1.525000
v -0.250000 6.750000 1.525000
v -0.250000 6.900000 1.675000
v 0.250000 6.900000 1.675000
v 0.250000 6.900000 1.525000
v -0.250000 6.900000 1.525000
vn -0.0000 -1.0000 -0.0000
vn -0.0000 1.0000 -0.0000
vn -0.0000 -0.0000 1.0000
vn 1.0000 -0.0000 -0.0000
vn -0.0000 -0.0000 -1.0000
vn -1.0000 -0.0000 -0.0000
s 0
usemtl lip
f 220//163 219//163 218//163 217//163
f 221//164 222//164 223//164 224//164
f 217//165 218//165 222//165 221//165
f 218//166 219//166 223//166 222//166
f 219//167 220//167 224//167 223//167
f 220//168 217//168 221//168 224//168
o c.032
v -1.625000 9.500000 1.375000
v 1.625000 9.500000 1.375000
v 1.625000 9.500000 -1.375000
v -1.625000 9.500000 -1.375000
v -1.625000 10.000000 1.375000
v 1.625000 10.000000 1.375000
v 1.625000 10.000000 -1.375000
v -1.625000 10.000000 -1.375000
vn -0.0000 -1.0000 -0.0000
vn -0.0000 1.0000 -0.0000
vn -0.0000 -0.0000 1.0000
vn 1.0000 -0.0000 -0.0000
vn -0.0000 -0.0000 -1.0000
vn -1.0000 -0.0000 -0.0000
s 0
usemtl hair
f 228//169 227//169 226//169 225//169
f 229//170 230//170 231//170 232//170
f 225//171 226//171 230//171 229//171
f 226//172 227//172 231//172 230//172
f 227//173 228//173 232//173 231//173
f 228//174 225//174 229//174 232//174
o c.033
v -1.625000 6.500000 -0.125000
v 1.625000 6.500000 -0.125000
v 1.625000 6.500000 -1.375000
v -1.625000 6.500000 -1.375000
v -1.625000 10.000000 -0.125000
v 1.625000 10.000000 -0.125000
v 1.625000 10.000000 -1.375000
v -1.625000 10.000000 -1.375000
vn -0.0000 -1.0000 -0.0000
vn -0.0000 1.0000 -0.0000
vn -0.0000 -0.0000 1.0000
vn 1.0000 -0.0000 -0.0000
vn -0.0000 -0.0000 -1.0000
vn -1.0000 -0.0000 -0.0000
s 0
usemtl hair
f 236//175 235//175 234//175 233//175
f 237//176 238//176 239//176 240//176
f 233//177 234//177 238//177 237//177
f 234//178 235//178 239//178 238//178
f 235//179 236//179 240//179 239//179
f 236//180 233//180 237//180 240//180
o c.034
v -0.750000 9.750000 0.750000
v 0.750000 9.750000 0.750000
v 0.750000 9.750000 -0.250000
v -0.750000 9.750000 -0.250000
v -0.750000 10.000000 0.750000
v 0.750000 10.000000 0.750000
v 0.750000 10.000000 -0.250000
v -0.750000 10.000000 -0.250000
vn -0.0000 -1.0000 -0.0000
vn -0.0000 1.0000 -0.0000
vn -0.0000 -0.0000 1.0000
vn 1.0000 -0.0000 -0.0000
vn -0.0000 -0.0000 -1.0000
vn -1.0000 -0.0000 -0.0000
s 0
usemtl hair_hi
f 244//181 243//181 242//181 241//181
f 245//182 246//182 247//182 248//182
f 241//183 242//183 246//183 245//183
f 242//184 243//184 247//184 246//184
f 243//185 244//185 248//185 247//185
f 244//186 241//186 245//186 248//186
o c.035
v -1.500000 9.000000 1.625000
v -0.500000 9.000000 1.625000
v -0.500000 9.000000 0.875000
v -1.500000 9.000000 0.875000
v -1.500000 9.750000 1.625000
v -0.500000 9.750000 1.625000
v -0.500000 9.750000 0.875000
v -1.500000 9.750000 0.875000
vn -0.0000 -1.0000 -0.0000
vn -0.0000 1.0000 -0.0000
vn -0.0000 -0.0000 1.0000
vn 1.0000 -0.0000 -0.0000
vn -0.0000 -0.0000 -1.0000
vn -1.0000 -0.0000 -0.0000
s 0
usemtl hair
f 252//187 251//187 250//187 249//187
f 253//188 254//188 255//188 256//188
f 249//189 250//189 254//189 253//189
f 250//190 251//190 255//190 254//190
f 251//191 252//191 256//191 255//191
f 252//192 249//192 253//192 256//192
o c.036
v -0.500000 9.000000 1.625000
v 0.500000 9.000000 1.625000
v 0.500000 9.000000 0.875000
v -0.500000 9.000000 0.875000
v -0.500000 9.750000 1.625000
v 0.500000 9.750000 1.625000
v 0.500000 9.750000 0.875000
v -0.500000 9.750000 0.875000
vn -0.0000 -1.0000 -0.0000
vn -0.0000 1.0000 -0.0000
vn -0.0000 -0.0000 1.0000
vn 1.0000 -0.0000 -0.0000
vn -0.0000 -0.0000 -1.0000
vn -1.0000 -0.0000 -0.0000
s 0
usemtl hair
f 260//193 259//193 258//193 257//193
f 261//194 262//194 263//194 264//194
f 257//195 258//195 262//195 261//195
f 258//196 259//196 263//196 262//196
f 259//197 260//197 264//197 263//197
f 260//198 257//198 261//198 264//198
o c.037
v 0.500000 9.000000 1.625000
v 1.500000 9.000000 1.625000
v 1.500000 9.000000 0.875000
v 0.500000 9.000000 0.875000
v 0.500000 9.750000 1.625000
v 1.500000 9.750000 1.625000
v 1.500000 9.750000 0.875000
v 0.500000 9.750000 0.875000
vn -0.0000 -1.0000 -0.0000
vn -0.0000 1.0000 -0.0000
vn -0.0000 -0.0000 1.0000
vn 1.0000 -0.0000 -0.0000
vn -0.0000 -0.0000 -1.0000
vn -1.0000 -0.0000 -0.0000
s 0
usemtl hair
f 268//199 267//199 266//199 265//199
f 269//200 270//200 271//200 272//200
f 265//201 266//201 270//201 269//201
f 266//202 267//202 271//202 270//202
f 267//203 268//203 272//203 271//203
f 268//204 265//204 269//204 272//204
o c.038
v -1.950000 6.500000 1.125000
v -1.350000 6.500000 1.125000
v -1.350000 6.500000 -0.125000
v -1.950000 6.500000 -0.125000
v -1.950000 9.500000 1.125000
v -1.350000 9.500000 1.125000
v -1.350000 9.500000 -0.125000
v -1.950000 9.500000 -0.125000
vn -0.0000 -1.0000 -0.0000
vn -0.0000 1.0000 -0.0000
vn -0.0000 -0.0000 1.0000
vn 1.0000 -0.0000 -0.0000
vn -0.0000 -0.0000 -1.0000
vn -1.0000 -0.0000 -0.0000
s 0
usemtl hair
f 276//205 275//205 274//205 273//205
f 277//206 278//206 279//206 280//206
f 273//207 274//207 278//207 277//207
f 274//208 275//208 279//208 278//208
f 275//209 276//209 280//209 279//209
f 276//210 273//210 277//210 280//210
o c.039
v 1.350000 6.500000 1.125000
v 1.950000 6.500000 1.125000
v 1.950000 6.500000 -0.125000
v 1.350000 6.500000 -0.125000
v 1.350000 9.500000 1.125000
v 1.950000 9.500000 1.125000
v 1.950000 9.500000 -0.125000
v 1.350000 9.500000 -0.125000
vn -0.0000 -1.0000 -0.0000
vn -0.0000 1.0000 -0.0000
vn -0.0000 -0.0000 1.0000
vn 1.0000 -0.0000 -0.0000
vn -0.0000 -0.0000 -1.0000
vn -1.0000 -0.0000 -0.0000
s 0
usemtl hair
f 284//211 283//211 282//211 281//211
f 285//212 286//212 287//212 288//212
f 281//213 282//213 286//213 285//213
f 282//214 283//214 287//214 286//214
f 283//215 284//215 288//215 287//215
f 284//216 281//216 285//216 288//216
o c.040
v -1.500000 3.000000 -0.250000
v 1.500000 3.000000 -0.250000
v 1.500000 3.000000 -1.250000
v -1.500000 3.000000 -1.250000
v -1.500000 6.500000 -0.250000
v 1.500000 6.500000 -0.250000
v 1.500000 6.500000 -1.250000
v -1.500000 6.500000 -1.250000
vn -0.0000 -1.0000 -0.0000
vn -0.0000 1.0000 -0.0000
vn -0.0000 -0.0000 1.0000
vn 1.0000 -0.0000 -0.0000
vn -0.0000 -0.0000 -1.0000
vn -1.0000 -0.0000 -0.0000
s 0
usemtl hair
f 292//217 291//217 290//217 289//217
f 293//218 294//218 295//218 296//218
f 289//219 290//219 294//219 293//219
f 290//220 291//220 295//220 294//220
f 291//221 292//221 296//221 295//221
f 292//222 289//222 293//222 296//222
o c.041
v -1.250000 1.500000 -0.300000
v 1.250000 1.500000 -0.300000
v 1.250000 1.500000 -1.200000
v -1.250000 1.500000 -1.200000
v -1.250000 3.000000 -0.300000
v 1.250000 3.000000 -0.300000
v 1.250000 3.000000 -1.200000
v -1.250000 3.000000 -1.200000
vn -0.0000 -1.0000 -0.0000
vn -0.0000 1.0000 -0.0000
vn -0.0000 -0.0000 1.0000
vn 1.0000 -0.0000 -0.0000
vn -0.0000 -0.0000 -1.0000
vn -1.0000 -0.0000 -0.0000
s 0
usemtl hair_hi
f 300//223 299//223 298//223 297//223
f 301//224 302//224 303//224 304//224
f 297//225 298//225 302//225 301//225
f 298//226 299//226 303//226 302//226
f 299//227 300//227 304//227 303//227
f 300//228 297//228 301//228 304//228
